<svg xmlns="http://www.w3.org/2000/svg" width="1921" height="728" viewBox="0 0 1921 728">
    <g fill="none" fill-rule="evenodd">
        <g fill="#F4F9FF">
            <g>
                <g>
                    <g>
                        <g>
                            <path d="M1545.44 49.248l.012 540.13c-45.677 32.087-107.016 58.254-187.013 80.631-379.9 106.27-660-231.5-1083.5 1-81.921 44.975-182.774 21.7-249.62-91.886-43.256-73.5-25.888-151.2 13.12-216.114 72.23-120.192 170.584-146.478 315-177.542 160.766-34.577 313.555 27.35 475 22.003C994.765 201.962 1090.952 15.462 1297.526.78c4.175-.298 8.302-.557 12.38-.78l71.533.002c72.11 4.425 125.144 22.75 164.001 49.246z" transform="translate(0 -2877) translate(-222 1271) translate(222 1606.99) translate(375.56)"/>
                        </g>
                    </g>
                </g>
            </g>
        </g>
    </g>
</svg>
